<?xml version="1.0" standalone="no"?><!DOCTYPE svg PUBLIC "-//W3C//DTD SVG 1.1//EN" "http://www.w3.org/Graphics/SVG/1.1/DTD/svg11.dtd"><svg t="1612272215855" class="icon" viewBox="0 0 1024 1024" version="1.1" xmlns="http://www.w3.org/2000/svg" p-id="1194" xmlns:xlink="http://www.w3.org/1999/xlink" width="128" height="128"><defs><style type="text/css"></style></defs><path d="M844.8 828.8256c0 28.16-22.9888 51.2-51.2 51.2h-134.4v-384a31.9488 31.9488 0 0 0-32-32H377.6a32 32 0 0 0-32 32v384H211.2a51.2 51.2 0 0 1-51.2-51.2V386.8672l342.4256-266.3424L844.8 386.8672v441.9584z m-435.2 51.2h185.6v-352H409.6v352zM896.512 345.9584l-374.4256-291.2256a31.8976 31.8976 0 0 0-39.2704 0L108.3392 345.9584a32.0512 32.0512 0 0 0-12.288 25.2416v457.6256c0 63.488 51.6096 115.2 115.2 115.2H793.6c63.488 0 115.2-51.712 115.2-115.2V371.2a32.1024 32.1024 0 0 0-12.3392-25.2416z" p-id="1195" fill="#000000"></path></svg>